<svg width="250" height="294" viewBox="0 0 339 294" fill="none" xmlns="http://www.w3.org/2000/svg">
<g clip-path="url(#clip0_4_158)">
<path d="M299.736 168.062C297.875 184.759 294.008 198.165 288.701 208.857C281.638 223.102 269.558 228.842 258.766 234.848C255.648 236.58 252.406 238.056 249.07 239.263C229.432 246.401 207.454 244.507 190.19 240.739C178.081 238.094 165.789 236.466 153.433 235.872C149.909 235.706 146.381 235.623 142.85 235.624C137.404 235.632 39.3593 237.581 15.488 186.967C9.59436 174.482 5.55461 159.231 4.10326 140.64C-0.00358224 88.0809 22.5682 53.5619 51.6833 30.9992C106.76 -11.6818 182.255 -9.89182 236.52 33.9134C272.665 63.0922 306.509 107.252 299.736 168.062Z" fill="#F2F2F2"/>
<path d="M105.938 152.846C105.938 194.623 82.2226 209.21 52.9688 209.21C23.7149 209.21 0 194.623 0 152.846C0 111.068 52.9688 57.9203 52.9688 57.9203C52.9688 57.9203 105.938 111.068 105.938 152.846Z" fill="#05BE92"/>
<path d="M51.0392 202.82L51.5816 167.855L74.1583 124.6L51.6667 162.371L51.9104 146.65L67.4701 115.355L51.975 142.489L52.4136 114.214L69.0754 89.299L52.4824 109.767L52.7564 57.9205L51.0343 126.557L51.1759 123.725L34.2357 96.5697L50.9043 129.16L49.3258 160.739L49.2789 159.901L29.75 131.324L49.2195 162.862L49.0222 166.811L48.9868 166.871L49.0031 167.195L44.9986 247.313H50.3488L50.9908 205.931L70.4127 174.47L51.0392 202.82Z" fill="#3F3D56"/>
<path d="M339 155.434C339 197.212 315.285 211.799 286.031 211.799C256.777 211.799 233.062 197.212 233.062 155.434C233.062 113.657 286.031 60.5091 286.031 60.5091C286.031 60.5091 339 113.657 339 155.434Z" fill="#05BE92"/>
<path d="M284.102 205.408L284.644 170.444L307.221 127.189L284.729 164.959L284.973 149.238L300.533 117.943L285.037 145.078L285.476 116.802L302.138 91.8877L285.545 112.356L285.819 60.5092L284.097 129.145L284.238 126.314L267.298 99.1584L283.967 131.749L282.388 163.328L282.341 162.49L262.812 133.913L282.282 165.451L282.085 169.4L282.049 169.459L282.066 169.784L278.061 249.902H283.411L284.053 208.519L303.475 177.058L284.102 205.408Z" fill="#3F3D56"/>
<path d="M228.825 119.953C228.825 165.63 202.897 181.578 170.913 181.578C138.928 181.578 113 165.63 113 119.953C113 74.2761 170.913 16.168 170.913 16.168C170.913 16.168 228.825 74.2761 228.825 119.953Z" fill="#05BE92"/>
<path d="M168.803 174.591L169.396 136.364L194.08 89.0712L169.489 130.367L169.756 113.179L186.767 78.9629L169.826 108.63L170.305 77.7155L188.522 50.4753L170.381 72.8542L170.68 16.1682L168.798 91.2102L168.952 88.1144L150.431 58.4245L168.655 94.0571L166.93 128.583L166.878 127.667L145.527 96.4228L166.814 130.904L166.598 135.222L166.559 135.287L166.577 135.641L162.198 223.237H168.048L168.75 177.993L189.985 143.595L168.803 174.591Z" fill="#3F3D56"/>
<path d="M293.8 253.69C293.8 263.493 232.457 294 156.787 294C81.1175 294 19.7749 263.493 19.7749 253.69C19.7749 243.886 76.1737 221.885 151.844 221.885C227.514 221.885 293.8 243.886 293.8 253.69Z" fill="#3F3D56"/>
<path opacity="0.1" d="M293.8 253.69C293.8 263.493 232.457 294 156.787 294C81.1175 294 19.7749 263.493 19.7749 253.69C19.7749 243.886 76.1737 221.885 151.844 221.885C227.514 221.885 293.8 243.886 293.8 253.69Z" fill="black"/>
<path d="M293.8 253.69C293.8 263.493 232.457 271.441 156.787 271.441C81.1175 271.441 19.7749 263.493 19.7749 253.69C19.7749 243.886 76.1737 221.885 151.844 221.885C227.514 221.885 293.8 243.886 293.8 253.69Z" fill="#3F3D56"/>
<path d="M202.845 204.533C202.845 218.597 211.27 229.978 221.681 229.978L202.845 204.533Z" fill="#3F3D56"/>
<path d="M221.681 229.978C221.681 215.756 231.083 204.247 242.701 204.247L221.681 229.978Z" fill="#05BE92"/>
<path d="M209.67 205.808C209.67 219.167 215.042 229.978 221.681 229.978L209.67 205.808Z" fill="#05BE92"/>
<path d="M221.681 229.978C221.681 211.805 232.548 197.1 245.977 197.1L221.681 229.978Z" fill="#3F3D56"/>
<path d="M217.719 230.157C217.719 230.157 220.39 230.071 221.195 229.47C222 228.87 225.304 228.153 225.504 229.116C225.703 230.079 229.518 233.905 226.502 233.93C223.486 233.956 219.495 233.438 218.691 232.926C217.888 232.413 217.719 230.157 217.719 230.157Z" fill="#A8A8A8"/>
<path opacity="0.2" d="M226.556 233.595C223.54 233.621 219.549 233.103 218.745 232.591C218.133 232.2 217.889 230.8 217.808 230.153C217.751 230.156 217.719 230.157 217.719 230.157C217.719 230.157 217.888 232.413 218.691 232.926C219.495 233.438 223.486 233.956 226.502 233.93C227.373 233.923 227.673 233.599 227.657 233.118C227.536 233.408 227.204 233.59 226.556 233.595Z" fill="black"/>
<path opacity="0.1" d="M158.553 259.607C184.297 259.607 205.166 256.13 205.166 251.841C205.166 247.551 184.297 244.074 158.553 244.074C132.81 244.074 111.941 247.551 111.941 251.841C111.941 256.13 132.81 259.607 158.553 259.607Z" fill="black"/>
<path d="M179.034 234.459H174.444V245.554H179.034V234.459Z" fill="#FFB9B9"/>
<path d="M179.387 84.6818H161.731V117.966H179.387V84.6818Z" fill="#FF6584"/>
<path d="M192.354 147.674L192.965 152.794L176.873 157.914L174.836 148.527L192.354 147.674Z" fill="#FFB9B9"/>
<path d="M168.521 98.3941C168.521 98.3941 168.114 102.234 167.299 102.234C166.484 102.234 163.632 103.727 163.632 103.727L162.818 107.781L168.521 111.407L177.892 110.341L180.54 106.074L177.892 103.301C177.892 103.301 175.651 98.1808 176.466 97.1141C177.28 96.0474 168.521 98.3941 168.521 98.3941Z" fill="#FFB9B9"/>
<path opacity="0.1" d="M168.521 98.3941C168.521 98.3941 168.114 102.234 167.299 102.234C166.484 102.234 163.632 103.727 163.632 103.727L162.818 107.781L168.521 111.407L177.892 110.341L180.54 106.074L177.892 103.301C177.892 103.301 175.651 98.1808 176.466 97.1141C177.28 96.0474 168.521 98.3941 168.521 98.3941Z" fill="black"/>
<path d="M143.059 231.3C143.059 231.3 141.226 244.1 138.985 244.953C136.744 245.807 147.54 247.3 147.54 247.3L148.355 242.607C148.355 242.607 148.559 234.073 149.374 232.793C150.188 231.513 143.059 231.3 143.059 231.3Z" fill="#FFB9B9"/>
<path d="M163.836 156.847C163.836 156.847 193.373 151.3 193.577 150.234C193.78 149.167 199.688 158.34 196.021 176.26C192.354 194.18 183.188 236.42 183.188 236.42C183.188 236.42 173.818 239.407 174.021 237.06C174.225 234.713 177.281 193.967 177.281 193.967L175.244 176.687L171.781 178.82L157.318 208.687L149.985 234.5C149.985 234.5 140.614 236.207 142.04 232.58C143.466 228.953 148.151 200.793 148.151 200.793L160.984 161.114C160.984 161.114 160.577 156.847 163.836 156.847Z" fill="#2F2E41"/>
<path d="M171.271 101.274C175.996 101.274 179.827 97.2626 179.827 92.3141C179.827 87.3657 175.996 83.3542 171.271 83.3542C166.546 83.3542 162.716 87.3657 162.716 92.3141C162.716 97.2626 166.546 101.274 171.271 101.274Z" fill="#FFB9B9"/>
<path d="M180.132 103.514C180.132 103.514 176.058 107.567 166.484 106.501C156.91 105.434 169.132 129.327 169.132 129.327L173.003 153.434C173.003 153.434 190.114 151.3 190.725 147.247C191.336 143.194 180.132 103.514 180.132 103.514Z" fill="#F2F2F2"/>
<path d="M176.058 126.341C176.058 126.341 171.17 123.781 169.336 116.741C167.503 109.701 165.873 102.447 164.855 102.661C163.995 102.841 156.019 106.063 153.434 108.217C152.958 108.614 152.664 108.975 152.633 109.274C152.429 111.194 159.966 130.394 159.966 130.394C159.966 130.394 165.873 144.26 163.429 148.74C160.984 153.22 160.781 158.98 165.262 158.554C169.744 158.127 184.614 157.274 182.577 145.327C182.577 145.327 186.447 153.647 197.243 147.674C197.243 147.674 203.762 146.607 203.558 144.26C203.354 141.914 193.169 121.647 193.169 121.647C193.169 121.647 191.54 112.687 194.595 109.274L187.669 100.741C187.669 100.741 186.04 98.1808 184.41 99.4608C182.781 100.741 179.114 102.874 178.503 103.087C177.892 103.301 177.49 102.321 177.49 102.321C176.079 105.412 175.513 108.853 175.855 112.261C176.466 117.807 176.058 126.341 176.058 126.341Z" fill="#2F2E41"/>
<path d="M143.67 242.393C143.67 242.393 143.215 240.9 140.591 242.393C140.591 242.393 141.429 237.7 138.577 237.7C135.725 237.7 134.707 243.247 134.707 243.247C134.707 243.247 133.892 246.873 128.392 248.366C122.892 249.86 127.17 254.98 131.04 254.98C134.911 254.98 140.003 251.78 140.003 251.78C140.003 251.78 150.596 251.993 150.799 249.86C151.003 247.726 149.781 241.327 148.966 241.327C148.151 241.327 146.522 244.313 146.522 244.313L143.67 242.393Z" fill="#2F2E41"/>
<path d="M178.299 238.639C178.299 238.639 175.447 235.439 173.818 240.772C172.188 246.105 170.966 248.239 171.984 249.092C173.003 249.945 173.818 249.519 173.41 251.225C173.003 252.932 174.632 256.559 178.299 256.559C181.966 256.559 182.984 253.785 182.78 251.865C182.577 249.945 180.947 247.599 180.947 247.599L179.318 241.625L178.299 238.639Z" fill="#2F2E41"/>
<path d="M194.391 88.5808L183.595 92.4208C183.595 92.4208 173.818 98.3941 178.095 99.6741C182.373 100.954 186.04 95.8341 186.04 95.8341L195.41 93.2741L194.391 88.5808Z" fill="#FFB9B9"/>
<path d="M165.45 78.4588C164.168 79.3784 163.148 80.638 162.178 81.909C160.206 84.4915 158.275 87.5758 158.761 90.8427C158.945 92.0835 159.472 93.2383 159.768 94.4551C160.168 96.0972 160.142 97.8158 160.113 99.5102C160.137 100.23 160.052 100.95 159.86 101.642C159.575 102.316 159.24 102.966 158.857 103.585C157.876 105.499 157.852 107.773 157.851 109.945C157.804 110.676 157.899 111.41 158.13 112.101C158.398 112.754 158.897 113.266 159.31 113.83C159.996 114.782 160.453 115.893 160.644 117.068C160.835 118.244 160.754 119.45 160.408 120.586C160.939 120.589 161.461 120.432 161.91 120.135C162.36 119.838 162.72 119.413 162.947 118.91C163.017 119.451 162.973 120.002 162.816 120.523C162.66 121.044 162.395 121.523 162.042 121.924C164.373 121.199 166.873 119.975 167.724 117.589C167.974 116.778 168.115 115.934 168.143 115.083C168.595 109.096 168.854 102.886 166.804 97.2774C166.148 95.4831 165.255 93.7463 165.035 91.8389C164.816 89.9314 165.488 87.7271 167.161 86.9394C167.2 87.4277 167.407 87.8846 167.744 88.2249C168.116 88.5145 168.805 88.3329 168.812 87.8471L169.62 89.0257C169.93 88.8663 170.195 88.6245 170.387 88.3245L170.942 89.0348L172.12 88.137L173.143 89.2928C173.537 89.0578 173.851 88.6998 174.042 88.2688C174.262 88.6133 174.534 88.9919 174.928 89.0292C175.786 89.1104 175.963 87.6842 176.713 87.2393C176.99 87.1112 177.301 87.0913 177.591 87.1833C177.881 87.2752 178.13 87.473 178.292 87.7406C178.601 88.2913 178.714 88.9389 178.61 89.5684C178.3 92.5019 175.91 95.1786 176.618 98.0352C177.017 99.6414 178.359 100.929 178.46 102.586C178.541 103.909 177.798 105.161 177.809 106.488C177.823 108.042 178.848 109.362 179.849 110.51C181.63 112.552 183.506 114.499 185.474 116.35L184.866 115.235C185.15 115.212 185.436 115.253 185.703 115.356C185.97 115.459 186.213 115.621 186.415 115.832C186.59 115.191 186.3 114.524 186.027 113.922C184.389 110.321 183.067 106.486 182.869 102.502C182.595 96.9648 184.496 91.3411 183.291 85.9416C182.598 82.9185 180.983 80.2143 178.69 78.2391C177.576 77.2784 176.731 76.703 175.288 76.5971C173.675 76.4503 172.052 76.4636 170.441 76.6369C168.662 76.8142 166.949 77.4393 165.45 78.4588Z" fill="#FF6584"/>
<path d="M186.04 100.954C186.04 100.954 188.281 101.167 189.299 100.954C190.318 100.741 191.743 99.6741 191.743 99.6741L199.484 93.7008L192.762 94.7674C192.762 94.7674 193.984 84.9542 193.577 84.7408C193.169 84.5275 213.336 80.4742 212.928 87.0875C212.521 93.7008 201.114 106.714 194.595 109.274L190.318 109.914L186.04 100.954Z" fill="#2F2E41"/>
<path d="M207.991 176.586H111.941V200.254H207.991V176.586Z" fill="white"/>
<path d="M195.455 181.948H124.124V194.522H195.455V181.948Z" fill="#3F3D56"/>
<path d="M140.7 187.959C140.671 187.637 139.31 187.493 137.441 187.574C138.524 185.977 139.151 184.703 138.908 184.502C138.68 184.313 137.743 185.132 136.603 186.461C136.495 184.678 136.245 183.427 135.953 183.427C135.635 183.427 135.366 184.915 135.278 186.96C133.691 185.765 132.41 185.063 132.213 185.325C132.024 185.574 132.882 186.629 134.245 187.89C132.446 188.169 131.178 188.564 131.206 188.881C131.235 189.203 132.597 189.347 134.465 189.266C133.382 190.862 132.755 192.137 132.998 192.337C133.227 192.527 134.163 191.708 135.303 190.379C135.411 192.162 135.661 193.412 135.953 193.412C136.271 193.412 136.54 191.925 136.629 189.88C138.215 191.075 139.496 191.776 139.694 191.515C139.882 191.265 139.024 190.211 137.661 188.95C139.46 188.67 140.728 188.276 140.7 187.959Z" fill="white"/>
<path d="M152.706 187.959C152.678 187.637 151.316 187.493 149.448 187.574C150.53 185.977 151.157 184.703 150.915 184.502C150.686 184.313 149.749 185.132 148.609 186.461C148.501 184.678 148.251 183.427 147.959 183.427C147.641 183.427 147.372 184.915 147.284 186.96C145.697 185.765 144.416 185.063 144.219 185.325C144.031 185.574 144.888 186.629 146.251 187.89C144.452 188.169 143.185 188.564 143.213 188.881C143.241 189.203 144.603 189.347 146.471 189.266C145.389 190.862 144.762 192.137 145.004 192.337C145.233 192.527 146.169 191.708 147.31 190.379C147.418 192.162 147.668 193.412 147.959 193.412C148.278 193.412 148.546 191.925 148.635 189.88C150.221 191.075 151.503 191.776 151.7 191.515C151.888 191.265 151.031 190.211 149.667 188.95C151.467 188.67 152.734 188.276 152.706 187.959Z" fill="white"/>
<path d="M164.712 187.959C164.684 187.637 163.322 187.493 161.454 187.574C162.536 185.977 163.164 184.703 162.921 184.502C162.692 184.313 161.756 185.132 160.615 186.461C160.507 184.678 160.257 183.427 159.966 183.427C159.647 183.427 159.379 184.915 159.29 186.96C157.704 185.765 156.422 185.063 156.225 185.325C156.037 185.574 156.894 186.629 158.258 187.89C156.458 188.169 155.191 188.564 155.219 188.881C155.247 189.203 156.609 189.347 158.477 189.266C157.395 190.862 156.768 192.137 157.01 192.337C157.239 192.527 158.176 191.708 159.316 190.379C159.424 192.162 159.674 193.412 159.966 193.412C160.284 193.412 160.553 191.925 160.641 189.88C162.228 191.075 163.509 191.776 163.706 191.515C163.894 191.265 163.037 190.211 161.674 188.95C163.473 188.67 164.74 188.276 164.712 187.959Z" fill="white"/>
<path d="M176.719 187.959C176.69 187.637 175.329 187.493 173.46 187.574C174.543 185.977 175.17 184.703 174.927 184.502C174.698 184.313 173.762 185.132 172.622 186.461C172.514 184.678 172.264 183.427 171.972 183.427C171.654 183.427 171.385 184.915 171.297 186.96C169.71 185.765 168.429 185.063 168.231 185.325C168.043 185.574 168.901 186.629 170.264 187.89C168.465 188.169 167.197 188.564 167.225 188.881C167.254 189.203 168.615 189.347 170.484 189.266C169.401 190.862 168.774 192.137 169.017 192.337C169.245 192.527 170.182 191.708 171.322 190.379C171.43 192.162 171.68 193.412 171.972 193.412C172.29 193.412 172.559 191.925 172.647 189.88C174.234 191.075 175.515 191.776 175.712 191.515C175.901 191.265 175.043 190.211 173.68 188.95C175.479 188.67 176.747 188.276 176.719 187.959Z" fill="white"/>
<path d="M188.725 187.959C188.697 187.637 187.335 187.493 185.466 187.574C186.549 185.977 187.176 184.703 186.934 184.502C186.705 184.313 185.768 185.132 184.628 186.461C184.52 184.678 184.27 183.427 183.978 183.427C183.66 183.427 183.391 184.915 183.303 186.96C181.716 185.765 180.435 185.063 180.238 185.325C180.049 185.574 180.907 186.629 182.27 187.89C180.471 188.169 179.203 188.564 179.231 188.881C179.26 189.203 180.622 189.347 182.49 189.266C181.407 190.862 180.78 192.137 181.023 192.337C181.252 192.527 182.188 191.708 183.329 190.379C183.436 192.162 183.687 193.412 183.978 193.412C184.296 193.412 184.565 191.925 184.654 189.88C186.24 191.075 187.522 191.776 187.719 191.515C187.907 191.265 187.05 190.211 185.686 188.95C187.486 188.67 188.753 188.276 188.725 187.959Z" fill="white"/>
<path d="M151.41 166.447C151.41 166.447 150.392 180.527 155.281 181.167C160.17 181.807 155.688 165.167 155.688 165.167L151.41 166.447Z" fill="#FFB9B9"/>
<path d="M154.059 108.847L152.633 109.274C152.633 109.274 146.725 158.767 150.596 168.367C150.596 168.367 154.67 166.02 156.707 166.447L159.966 126.127L154.059 108.847Z" fill="#2F2E41"/>
</g>
<defs>
<clipPath id="clip0_4_158">
<rect width="339" height="294" fill="white"/>
</clipPath>
</defs>
</svg>
